<?xml version="1.0" standalone="no"?><!DOCTYPE svg PUBLIC "-//W3C//DTD SVG 1.1//EN" "http://www.w3.org/Graphics/SVG/1.1/DTD/svg11.dtd"><svg t="1583112736218" class="icon" viewBox="0 0 1024 1024" version="1.1" xmlns="http://www.w3.org/2000/svg" p-id="2382" xmlns:xlink="http://www.w3.org/1999/xlink" width="48" height="48"><defs><style type="text/css"></style></defs><path d="M1014.544 617.03C981.602 330.456 923.148 125 738.002 125c-93.873 0-142.048 96.35-225.766 104.028C426.04 221.35 380.466 125 286.593 125 101.447 125 43.117 330.456 12.651 614.553c-17.71 152.204-2.477 279.019 91.273 279.019 131.893 0 136.971-119.261 230.844-174.991 35.543-17.71 114.184-25.388 180.068-27.865 65.885 2.601 144.525 10.155 180.068 27.865 93.873 55.853 98.951 174.991 230.844 174.991 91.273 2.601 104.028-124.339 88.796-276.418v-0.124z m-725.475-25.388c-73.439 0-131.769-60.807-131.769-131.893s58.33-131.893 131.893-131.893 131.893 58.33 131.893 131.893-60.93 131.893-132.017 131.893zM880.05 485.137H776.022v104.028h-50.776V485.137H621.217v-50.776h104.028V332.933h50.776v101.428H880.05v50.776z" p-id="2383"></path><path d="M213.03 459.749c0 20.31 7.596 38.061 22.787 53.253 12.632 12.632 32.942 22.787 53.253 22.787s38.02-7.554 53.253-22.787c12.632-12.632 22.787-32.942 22.787-53.253s-7.554-38.02-22.787-53.253c-12.632-12.632-32.942-22.787-53.253-22.787s-38.02 7.554-53.253 22.787c-15.233 12.632-22.787 32.942-22.787 53.253z" p-id="2384"></path></svg>